Patient4_TMGait_0pt2_02_left_02_EMG.mot
version=1
nRows=36
nColumns=33
inDegrees=no
endheader
time	1LAddLong	2LGlutMax	3LGlutMed	4LIliopsoas	5LSemiMemb	6LBicFemLong	7LRecFem	8LVastMed	9LVastLat	10LGasMed	11LTibAnt	12lTibPost	13LPeroneusLong	14LSol	15LExtDigLong	16LFlexDigLong	17RAddLong	18RGlutMax	19RGlutMed	20RIliopsoas	21RSemiMemb	22RBicFemLong	23RRecFem	24RVastMed	25RVastLat	26RGasMed	27RTibAnt	28RTibPost	29RPeroneusLong	30RSol	31RExtDigLong	32RFlexDigLong
4.987	-0.042725	-0.10849	-0.010376	0.002289	-0.10346	0.26627	0.039825	-0.002441	-0.069885	0.032349	0.017853	0.00412	0.061798	-0.032654	-0.013885	-0.003967	0.010223	0.010834	0.22278	-0.041962	0.16586	0.045319	0.058289	-0.08667	-0.04715	0.00351	0.031281	0.003662	-0.54764	-0.15732	-0.005798	-0.007324
4.988	-0.040741	-0.15564	0.005188	-0.002136	-0.16922	0.16937	0.018311	0.003204	0.029297	0.035248	0.003967	0.002594	0.091095	0.000458	-0.00824	-0.00473	0.003662	0.085602	0.29953	-0.33691	0.016479	0.061798	0.056152	-0.049744	-0.019989	-0.00061	-0.01358	-0.003357	-0.44479	-0.121	0.000458	-0.004578
4.989	-0.006561	-0.12817	-0.016327	-0.010071	-0.1651	-0.11444	-0.028381	-0.010071	0.12177	0.029602	-0.000763	-0.001068	0.10162	0.044098	0.004883	-0.000916	-0.012817	0.045471	0.090027	-0.29816	-0.10437	0.12009	0.075836	0.035248	-0.021973	-0.006866	-0.001984	-0.009613	-0.17838	0.011749	-0.002441	0.002136
4.99	0.0354	-0.039368	-0.013275	0.005035	0.028381	-0.31586	-0.03067	-0.014191	0.16602	0.003815	0.002747	0.010071	0.076447	0.039673	0.030212	-0.007782	-0.005493	0.001831	-0.034637	-0.051727	-0.14069	0.077209	0.06073	0.000763	-0.019531	-0.002289	-0.037689	-0.006866	0.56778	0.045319	-0.005798	-0.003204
4.991	0.043335	-0.013428	-0.007782	0.012512	0.12238	-0.48874	-0.003662	-0.011139	0.15701	0.016632	-0.000153	0.009003	0.023956	0.042419	0.021057	-0.015564	0.014038	0.024872	-0.044403	0.23514	0.077209	-0.053406	0.028687	-0.037079	-0.012207	-0.005493	-0.012512	-0.003815	0.072784	-0.024109	-0.003357	0.000458
4.992	0.029755	-0.006104	-0.023651	0.013275	0.11093	-0.45639	0.024261	-0.005188	0.15625	0.046082	0.025635	0.008545	-0.20416	0.004578	-0.030365	-0.019073	0.034332	0.008545	-0.019226	0.43045	0.070343	-0.16693	0.041351	-0.033875	0.009155	-0.010986	0.028381	-0.004425	0.12177	-0.021667	-0.003204	0.000305
4.993	0.021667	-0.010834	-0.040283	0.008698	0.087433	-0.30914	0.044403	-0.008392	0.12589	-0.009155	0.02182	0.003357	-0.18478	-0.0354	-0.023041	0.095978	0.035553	0.010529	-0.0354	0.29236	0.011139	-0.19333	0.011749	-0.049133	0.028839	-0.00885	0.025177	-0.003662	0.17593	0.007782	0.001221	-0.00412
4.994	0.014496	0.002136	-0.053253	-0.003204	0.04364	-0.09613	0.019684	-0.014496	0.03952	-0.002594	0.014038	0.008698	0.064392	-0.004272	-0.017242	-0.10513	0.028992	0.027618	-0.2356	0.087891	-0.15457	-0.16434	0.0354	-0.02655	0.004272	-0.009613	0.00946	-0.007172	0.1236	0.046844	0.000458	-0.005341
4.995	0.016327	-0.002289	0.00824	0.020142	0.049744	0.12451	0.018463	-0.006104	-0.094604	-0.025787	0.024109	0.010834	0.23972	-0.007324	0.012054	0.052948	0.016479	-0.005798	-0.13672	-0.027008	-0.14877	-0.048218	0.018311	-0.054932	0.001678	0.000153	-0.009308	-0.003357	0.041504	0.016632	0.001373	-0.008698
4.996	0.015564	0.001068	0.016479	0.003815	0.025177	0.14053	-0.012207	-0.006256	-0.15991	-0.028687	0.007629	0.013885	-0.089569	0.013733	0.009918	0.16846	0.001221	-0.035858	0.025024	-0.070038	-0.002747	-0.02182	0.016632	-0.095215	-0.001526	0.00351	0.02594	-0.002594	-0.24399	0.020142	0.001526	-0.008545
4.997	0.008392	-0.006409	0.025177	-0.004883	0.010376	0.053101	0.034332	-0.010071	-0.17364	0.032196	0.013428	0.005798	0.10559	-0.053558	-0.040436	-0.088196	-0.002594	-0.057983	-0.002289	-0.021057	0.14328	0.074463	0.00885	-0.091095	0.000458	0.008698	-0.000305	-0.001678	0.8223	-0.029755	-0.000305	-0.003815
4.998	0.000153	-0.054169	0.05127	0.005035	-0.011444	0.040588	0.035095	-0.010071	-0.10239	0.04715	0.015869	-0.050659	0.32013	-0.10696	-0.022583	-0.083771	-0.018768	-0.099335	0.045471	0.095062	0.38864	0.17181	0.04715	-0.029602	0.005798	0.015106	-0.031433	-0.003204	0.40207	0.010529	0.003052	-0.014954
4.999	-0.002441	-0.022278	0.013733	-0.008698	-0.003357	0.11856	0.015411	-0.003357	-0.058594	0.11093	0.014648	0.029602	0.25818	-0.15686	-0.026398	0.006561	-0.039215	-0.045471	0.06073	0.036621	-0.20569	0.31158	0.046234	0.06958	-0.002441	0.005188	-0.041962	-0.000305	-0.13107	-0.040741	-0.001984	-0.002594
5	-0.004578	0.028381	0.016327	-0.012054	0.018616	0.10468	-0.012512	-0.005798	-0.033722	0.16525	0.016632	0.033569	0.31708	0.022583	-0.019836	-0.03891	-0.005951	-0.033875	0.20554	-0.063019	-0.21973	0.15564	-0.009003	0.063171	0.013275	-0.012512	-0.042877	0.000763	-0.070343	-0.037842	0.000305	-0.01297
5.001	-0.003662	0.019226	0.010681	0.026093	0.015259	0.075378	-0.02655	0.002899	-0.015564	0.23575	-0.01297	0.03479	-0.071259	0.13184	0.061035	-0.05249	0.033112	-0.006409	0.32684	-0.095673	-0.049133	0.11734	0.036621	0.038757	-0.005341	-0.001526	-0.015564	-0.001831	-0.21561	-0.1062	-0.001831	-0.014801
5.002	-0.003357	0.066833	0.080719	0.029449	-0.034485	0.0737	-0.040741	0.004272	-0.004272	0.2214	-0.016022	0.02533	-0.075836	0.10956	0.074005	0.001984	0.055542	0.007629	0.10162	-0.079803	-0.061798	0.12344	0.069275	-0.021515	-0.011902	0.001678	-0.025787	0.000305	-0.42465	-0.13473	-0.002289	-0.005646
5.003	0.003815	0.052643	0.040588	0.014038	-0.10025	0.10071	-0.003357	0.002289	0.01358	0.11322	0.00061	0.006714	0.050964	-0.022125	0.018616	0.002899	0.052338	0.005341	0.037079	-0.010681	-0.20309	0.10223	0.033264	0.005493	-0.002899	-0.001526	-0.007782	-0.002441	0.29236	-0.018311	-0.002899	-0.003204
5.004	0.005951	0.032959	-0.046692	0.00412	-0.049438	0.088806	0.041962	-0.007629	0.060577	-0.18738	-0.014191	0.007629	0.10391	0.087128	0.002747	-0.003815	0.03952	0.030365	-0.04715	0.004272	-0.18784	-0.02655	0.037537	-0.007782	-0.010223	-0.002136	-0.003204	-0.048981	0.097656	0.25497	0.001373	-0.006409
5.005	-0.007477	0.020142	-0.103	0.006409	-0.01709	0.021515	0.076294	0.000153	0.057678	-0.21622	0.029602	0.000916	0.66422	0.063782	-0.055542	0.002136	0.032806	0.050507	-0.031433	0.065308	-0.1741	-0.12146	0.044098	-0.025177	-0.000763	-0.014954	-0.024719	-0.24185	-0.039978	0.30991	0.005188	0.003662
5.006	-0.001221	-0.035858	-0.11978	0.011444	-0.067444	0.009918	0.068512	0.001221	0.013123	-0.19592	0.032959	0.015564	0.20111	0.10346	0.002441	0.007019	0.036163	0.009766	0.073395	0.079346	0.065765	-0.18402	0.034637	-0.037842	0.006409	-0.014038	-0.0177	0.14847	-0.14587	0.19821	-0.006561	0.003357
5.007	-0.003357	-0.073395	-0.076904	0.001678	-0.049896	0.088501	0.0383	-0.001984	0.015869	-0.063934	0.045013	0.016937	-0.35431	0.013885	0.005341	0.012054	0.027466	0.063782	-0.041351	0.015106	0.22919	-0.22339	0.074005	-0.068817	0.000153	-0.013733	-0.012817	0.14877	-0.013428	0.13351	-0.000458	0.00412
5.008	0.013733	-0.082092	-0.10086	-0.013428	-0.019226	0.033875	0.018158	-0.001221	0.032654	0.15366	0.022125	0.010681	-0.70923	-0.32883	-0.032501	0.018616	0.013885	0.067749	-0.12039	-0.12177	0.039825	-0.11002	0.048523	-0.095367	0.016174	-0.016327	-0.00061	0.085602	0.054169	0.084381	-0.00061	0.002594
5.009	0.019531	-0.12802	0.019073	-0.017242	0.069885	-0.016479	-0.005035	0.007172	0.042572	-0.15533	-0.001984	0.00946	-0.18173	-0.16403	0.04303	0.014954	-0.039978	0.071564	-0.044556	-0.30609	-0.27847	0.097961	0.032959	-0.007629	0.000763	-0.011139	0.004272	0.030518	-0.003357	0.045319	-0.000458	0.005493
5.01	0.02594	-0.21668	-0.03952	0	0.09552	-0.038605	0.005951	0.003052	0.018463	-0.1442	0.001984	0.005493	-0.43121	-0.029144	-0.031281	0.016479	-0.079346	0.083008	0.028687	-0.37872	-0.10346	0.12558	0.06012	0.014648	0.004425	-0.006714	0.0177	0.005188	-0.061646	-0.14465	-0.001068	-0.002441
5.011	0.020447	-0.1915	-0.0177	0.023651	0.058899	-0.044403	0.024719	-0.002289	0.04776	-0.019989	-0.004272	0.007782	-0.19287	0.12512	-0.031433	0.018616	-0.037842	0.03479	0.009308	-0.2742	0.13336	0.1152	0.092316	-0.023651	-0.001678	-0.016327	0.018311	-0.009308	-0.023956	-0.16586	-0.000458	-0.011597
5.012	0.014496	-0.16892	0.16449	0.022278	0.056458	-0.16129	-0.003815	0.000763	0.054779	-0.020752	0.000153	0.001373	0.006104	0.12146	-0.072479	0.014038	-0.034027	0.082855	-0.065002	-0.039215	0.10376	0.13199	0.094299	-0.033264	-0.001068	-0.010223	0.011139	-0.017548	-0.027313	-0.061188	-0.000153	-0.001831
5.013	0.014496	-0.1796	0.13458	0.012054	0.025787	-0.09903	0.011139	-0.01358	0.050964	-0.18188	0.020599	0.008545	-0.13809	0.041046	-0.088043	0.012054	-0.04303	0.086517	0.01236	0.32837	0.035706	0.1207	0.055695	0.002594	0	-0.00946	0.004883	-0.012665	-0.019989	-0.028229	-0.002136	0.003662
5.014	0.009766	-0.12466	0.13107	0.016479	0.014648	-0.053406	0.008698	-0.000916	0.038147	-0.10132	0.027161	0.017853	-0.1831	0.22354	0.03006	0.011444	-0.00946	0.046692	0.12451	0.50781	-0.012207	0.075378	0.10132	0.033875	-0.000916	-0.010834	0.003357	-0.010071	-0.036926	-0.03479	0.004425	-0.006409
5.015	0.006104	-0.11307	0.11398	-0.011597	0.001526	-0.045471	-0.007172	-0.005341	-0.007935	0.18753	0.021057	0.013733	-0.021667	-0.083618	0.002594	0.002136	0.012207	0.036163	0.006104	0.4361	-0.014801	0.074921	0.12146	-0.056305	-0.02533	-0.002441	0.003967	-0.014038	-0.028839	-0.059204	-0.002899	-0.010071
5.016	0.005646	-0.10056	0.045319	-0.001678	-0.003662	-0.092316	-0.013123	-0.000153	-0.013123	0.23086	0.02121	0.003052	0.21072	-0.53528	-0.035706	0.006256	0.009308	0.014038	-0.033875	0.16342	-0.2356	0.088196	0.077209	-0.027618	0.007782	-0.005646	0.003052	-0.014801	-0.04364	-0.050812	0.000153	-0.008698
5.017	0.00351	-0.06485	-0.014648	-0.001984	0.00885	-0.10284	0.01358	-0.007019	0.014954	0.10147	0.008392	0.040894	-0.02182	-0.55756	0.024719	-0.004425	0.014343	-0.007629	-0.00412	0.025787	-0.056763	0.000458	0.066071	-0.014496	0.002289	0.001526	0.017853	-0.013885	-0.056	-0.061798	-0.001221	-0.007782
5.018	0.001068	-0.088043	-0.095062	-0.007782	-0.007477	-0.063477	0.041962	-0.008087	0.003662	-0.018158	0.001221	-0.00412	0.26566	-0.4773	0.031128	-0.01358	0.003967	0.010071	0.13779	-0.043335	0.13397	-0.030212	0.075378	-0.053253	0.009613	0.00412	0.017548	-0.015564	-0.041351	-0.057526	0.001068	-0.005798
5.019	0.006561	-0.066376	-0.096893	0.01709	-0.007629	0.063934	0.027771	0.000763	-0.02533	-0.043793	0.009918	-0.014801	0.023193	-0.10529	0.032501	0.007477	-0.010223	-0.039063	0.16281	-0.067139	0.052338	-0.010223	0.051117	-0.073853	0.02121	0.003052	0.016479	-0.014648	-0.041351	-0.06073	-0.001678	-0.009155
5.02	-0.001678	-0.042267	-0.046387	0.003204	-0.019379	0.17029	0.018616	-0.008087	0.006104	-0.014496	0.014648	-0.060883	0.032654	0.063629	-0.002747	0.019226	-0.026245	-0.098419	-0.077209	-0.062714	-0.036469	-0.041199	0.080109	-0.079803	0.023193	0.000305	0.007782	-0.011749	-0.005035	-0.067139	0.00061	-0.004578
5.021	0.000153	-0.069733	-0.013275	-0.002441	-0.052032	0.19348	0.006409	0.002441	0.020142	0.033417	0.014343	-0.064087	0.001678	-0.009613	0.026398	0.005341	-0.026245	-0.03418	-0.13001	-0.033417	0.13214	-0.079041	0.089569	-0.063629	0.015564	0.000305	0.018005	-0.014954	-0.01709	-0.073547	-0.000916	-0.004578
5.022	0.002441	-0.019989	0.069122	0.01236	-0.079956	0.23392	-0.020905	0.005188	0.022736	0.00824	0.010376	0.058594	-0.25269	-0.10162	0.053101	0.010834	-0.006866	-0.10407	-0.083466	-0.032806	0.074463	-0.058136	0.090179	-0.008698	0.007324	-0.006409	0.035553	-0.014954	-0.037384	-0.09201	0.002136	0.001221
